<?xml version="1.0" encoding="UTF-8"?>
<svg xmlns="http://www.w3.org/2000/svg" version="1.1" viewBox="0 0 800 800">
  <defs>
    <style>
      .cls-1 {
        fill: #9d9ac5;
      }

      .cls-2 {
        fill: #180339;
      }
    </style>
  </defs>
  <!-- Generator: Adobe Illustrator 28.7.1, SVG Export Plug-In . SVG Version: 1.2.0 Build 142)  -->
  <g>
    <g id="Calque_1">
      <g>
        <g id="Calque_2">
          <circle class="cls-1" cx="400" cy="400" r="388.2"/>
        </g>
        <g id="Calque_2-2" data-name="Calque_2">
          <g>
            <path class="cls-1" d="M400,792.5c-53,0-104.4-10.4-152.8-30.8-46.7-19.8-88.7-48.1-124.7-84.1-36-36-64.3-78-84.1-124.7-20.5-48.4-30.8-99.8-30.8-152.8s10.4-104.4,30.8-152.8c19.8-46.7,48.1-88.7,84.1-124.7,36-36,78-64.3,124.7-84.1,48.4-20.5,99.8-30.8,152.8-30.8s104.4,10.4,152.8,30.8c46.7,19.8,88.7,48.1,124.7,84.1,36,36,64.3,78,84.1,124.7,20.5,48.4,30.8,99.8,30.8,152.8s-10.4,104.4-30.8,152.8c-19.8,46.7-48.1,88.7-84.1,124.7-36,36-78,64.3-124.7,84.1-48.4,20.5-99.8,30.8-152.8,30.8Z"/>
            <path class="cls-2" d="M400,14.5c212.9,0,385.5,172.6,385.5,385.5s-172.6,385.5-385.5,385.5S14.5,612.9,14.5,400,187.1,14.5,400,14.5M400,.6c-53.9,0-106.2,10.6-155.5,31.4-47.6,20.1-90.3,48.9-127,85.6-36.7,36.7-65.5,79.4-85.6,127C11.2,293.8.6,346.1.6,400s10.6,106.2,31.4,155.5c20.1,47.6,48.9,90.3,85.6,127,36.7,36.7,79.4,65.5,127,85.6,49.2,20.8,101.6,31.4,155.5,31.4s106.2-10.6,155.5-31.4c47.6-20.1,90.3-48.9,127-85.6,36.7-36.7,65.5-79.4,85.6-127,20.8-49.2,31.4-101.6,31.4-155.5s-10.6-106.2-31.4-155.5c-20.1-47.6-48.9-90.3-85.6-127-36.7-36.7-79.4-65.5-127-85.6C506.2,11.2,453.9.6,400,.6h0Z"/>
          </g>
        </g>
        <g id="Calque_1-2" data-name="Calque_1">
          <path class="cls-2" d="M469.5,467c-20,20-25,42.5,5,72.5s82.5,12.5,85,55c30-47.5,12.5-95-17.5-125s-55-22.5-72.5-2.5Z"/>
          <path class="cls-2" d="M467,459.5c10-10,12.5-25,2.5-37.5-15-22.5-225-205-225-205-10-10-25-12.5-30-5-5,5-2.5,20,5,30,0,0,142.5,175,205,225,12.5,7.5,27.5,7.5,37.5-2.5l5-5Z"/>
        </g>
      </g>
    </g>
  </g>
</svg>