<?xml version="1.0" encoding="UTF-8"?>
<svg xmlns="http://www.w3.org/2000/svg" version="1.1" viewBox="0 0 800 800">
  <defs>
    <style>
      .cls-1 {
        isolation: isolate;
      }

      .cls-2 {
        fill: #a9accc;
      }

      .cls-3 {
        fill: #9d9ac5;
      }

      .cls-4 {
        fill: #180339;
      }
    </style>
  </defs>
  <!-- Generator: Adobe Illustrator 28.7.1, SVG Export Plug-In . SVG Version: 1.2.0 Build 142)  -->
  <g>
    <g id="Calque_1">
      <g>
        <g id="Calque_2">
          <g id="Calque_4">
            <circle class="cls-3" cx="400" cy="400" r="388.2"/>
          </g>
        </g>
        <g id="Calque_2-2" data-name="Calque_2">
          <g>
            <path class="cls-3" d="M399.5,792c-53,0-104.4-10.4-152.8-30.8-46.7-19.8-88.7-48.1-124.7-84.1-36-36-64.3-78-84.1-124.7-20.5-48.4-30.8-99.8-30.8-152.8s10.4-104.4,30.8-152.8c19.8-46.7,48.1-88.7,84.1-124.7,36-36,78-64.3,124.7-84.1,48.4-20.5,99.8-30.8,152.8-30.8s104.4,10.4,152.8,30.8c46.7,19.8,88.7,48.1,124.7,84.1,36,36,64.3,78,84.1,124.7,20.5,48.4,30.8,99.8,30.8,152.8s-10.4,104.4-30.8,152.8c-19.8,46.7-48.1,88.7-84.1,124.7-36,36-78,64.3-124.7,84.1-48.4,20.5-99.8,30.8-152.8,30.8Z"/>
            <path class="cls-4" d="M399.5,14c212.9,0,385.5,172.6,385.5,385.5s-172.6,385.5-385.5,385.5S14,612.4,14,399.5,186.6,14,399.5,14M399.5,0c-53.9,0-106.2,10.6-155.5,31.4-47.6,20.1-90.3,48.9-127,85.6-36.7,36.7-65.5,79.4-85.6,127C10.7,293.3,0,345.6,0,399.5s10.6,106.2,31.4,155.5c20.1,47.6,48.9,90.3,85.6,127,36.7,36.7,79.4,65.5,127,85.6,49.2,20.8,101.6,31.4,155.5,31.4s106.2-10.6,155.5-31.4c47.6-20.1,90.3-48.9,127-85.6,36.7-36.7,65.5-79.4,85.6-127,20.8-49.2,31.4-101.6,31.4-155.5s-10.6-106.2-31.4-155.5c-20.1-47.6-48.9-90.3-85.6-127-36.7-36.7-79.4-65.5-127-85.6C505.7,10.7,453.4,0,399.5,0h0Z"/>
          </g>
        </g>
        <g id="Calque_3">
          <g>
            <g>
              <path class="cls-2" d="M263.9,379.7c-4.8,0-9.2-2.3-11.9-6.3l-16.6-24c-2.2-3.2-3-7-2.3-10.8s2.8-7.1,6-9.3l286.3-197.3c2.4-1.7,5.3-2.6,8.2-2.6,4.8,0,9.2,2.3,11.9,6.3l16.6,24c4.5,6.6,2.9,15.6-3.7,20.1l-286.3,197.3c-2.4,1.7-5.3,2.6-8.2,2.6h0Z"/>
              <path class="cls-4" d="M533.6,127.9v3c4.3,0,8.3,2.1,10.7,5.6l16.6,24c4.1,5.9,2.6,14-3.3,18l-286.3,197.3c-2.2,1.5-4.7,2.3-7.3,2.3-4.3,0-8.3-2.1-10.7-5.6l-16.6-24c-4.1-5.9-2.6-14,3.3-18l286.3-197.3c2.2-1.5,4.7-2.3,7.3-2.3v-3M533.6,127.9c-3.1,0-6.3.9-9,2.8l-286.3,197.3c-7.3,5-9.1,14.9-4.1,22.2l16.6,24c3.1,4.5,8.1,6.9,13.1,6.9s6.3-.9,9-2.8l286.3-197.3c7.3-5,9.1-14.9,4.1-22.2l-16.6-24c-3.1-4.5-8.1-6.9-13.1-6.9h0Z"/>
            </g>
            <g>
              <path class="cls-4" d="M558.8,160.2c1.6,0,3.2-.5,4.5-1.4l-10.9-15.9-35.9-6.6-15.9,10.9c1.2,1.7,3,2.9,5.1,3.3l51.5,9.5c.5,0,1,.1,1.5.1h.1Z"/>
              <path class="cls-4" d="M543.3,185.2l-77.1-14.2-15.9,10.9c1.2,1.7,3,2.9,5.1,3.3l77.1,14.2,15.9-10.9c-1.2-1.7-3-2.9-5.1-3.3h0Z"/>
              <path class="cls-4" d="M493,219.9l-77.1-14.2-15.9,10.9c1.2,1.7,3,2.9,5.1,3.3l77.1,14.2,15.9-10.9c-1.2-1.7-3-2.9-5.1-3.3Z"/>
              <path class="cls-4" d="M442.7,254.5l-77.1-14.2-15.9,10.9c1.2,1.7,3,2.9,5.1,3.3l77.1,14.2,15.9-10.9c-1.2-1.7-3-2.9-5.1-3.3h0Z"/>
              <path class="cls-4" d="M392.4,289.2l-77.1-14.2-15.9,10.9c1.2,1.7,3,2.9,5.1,3.3l77.1,14.2,15.9-10.9c-1.2-1.7-3-2.9-5.1-3.3Z"/>
              <path class="cls-4" d="M343.5,323l-77.1-14.2-15.9,10.9c1.2,1.7,3,2.9,5.1,3.3l77.1,14.2,15.9-10.9c-1.2-1.7-3-2.9-5.1-3.3Z"/>
            </g>
          </g>
        </g>
        <g id="Calque_1-2" data-name="Calque_1">
          <g>
            <g class="cls-1">
              <path class="cls-2" d="M227.4,416.8v-58.1h364.9c6.5,0,11.8,5.3,11.8,11.8v46.4H227.4Z"/>
              <path class="cls-4" d="M592.3,360.1c5.7,0,10.3,4.6,10.3,10.3v44.9H228.9v-55.1h363.4M592.3,357.1H225.9v61.1h379.6v-47.9c0-7.3-5.9-13.3-13.3-13.3h0Z"/>
            </g>
            <path class="cls-4" d="M225.9,400.2v226.5c0,16,12.9,28.9,28.9,28.9h321.8c16,0,28.9-12.9,28.9-28.9v-226.5H225.9Z"/>
            <path class="cls-2" d="M562.3,454h-305.5c-4.4,0-8-3.6-8-8s3.6-8,8-8h305.5c4.4,0,8,3.6,8,8s-3.6,8-8,8Z"/>
            <path class="cls-2" d="M568.5,624.1h-305.5c-4.4,0-8-3.6-8-8s3.6-8,8-8h305.5c4.4,0,8,3.6,8,8s-3.6,8-8,8Z"/>
          </g>
        </g>
        <g id="Calque_5">
          <path class="cls-2" d="M332.8,445.8l-.7,173.8c0,2.5-3.6,4.5-8,4.5s-8-2.1-8-4.6l.7-173.8c0-2.5,3.6-4.5,8-4.5s8,2.1,8,4.6h0Z"/>
          <path class="cls-2" d="M503,445.8l-.7,173.8c0,2.5-3.6,4.5-8,4.5s-8-2.1-8-4.6l.7-173.8c0-2.5,3.6-4.5,8-4.5s8,2.1,8,4.6h0Z"/>
        </g>
        <g id="Calque_4-2">
          <g>
            <path class="cls-2" d="M225.9,389.1c-17.6,0-32-14.4-32-32s14.4-32,32-32,32,14.4,32,32-14.4,32-32,32Z"/>
            <path class="cls-4" d="M225.9,326.6c16.8,0,30.5,13.7,30.5,30.5s-13.7,30.5-30.5,30.5-30.5-13.7-30.5-30.5,13.7-30.5,30.5-30.5M225.9,323.6c-18.5,0-33.5,15-33.5,33.5s15,33.5,33.5,33.5,33.5-15,33.5-33.5-15-33.5-33.5-33.5h0Z"/>
          </g>
          <circle class="cls-4" cx="225.9" cy="357.1" r="13.6"/>
        </g>
      </g>
    </g>
  </g>
</svg>