<?xml version="1.0" encoding="UTF-8"?>
<svg id="Calque_1" xmlns="http://www.w3.org/2000/svg" version="1.1" viewBox="0 0 800 800">
  <!-- Generator: Adobe Illustrator 29.0.0, SVG Export Plug-In . SVG Version: 2.1.0 Build 186)  -->
  <defs>
    <style>
      .st0 {
        stroke-width: 1.9px;
      }

      .st0, .st1, .st2, .st3 {
        stroke-miterlimit: 10;
      }

      .st0, .st1, .st3, .st4 {
        stroke: #9d9ac5;
      }

      .st0, .st1, .st3, .st4, .st5 {
        fill: #180339;
      }

      .st1 {
        stroke-width: .9px;
      }

      .st6 {
        fill-rule: evenodd;
      }

      .st6, .st2, .st7 {
        fill: #9d9ac5;
      }

      .st8 {
        fill: none;
        stroke-linecap: round;
        stroke-linejoin: round;
        stroke-width: 47px;
      }

      .st8, .st2 {
        stroke: #180339;
      }

      .st2 {
        stroke-width: 2.8px;
      }

      .st3 {
        stroke-width: 1.3px;
      }

      .st4 {
        stroke-miterlimit: 10;
        stroke-width: 1.3px;
      }
    </style>
  </defs>
  <g id="Calque_11" data-name="Calque_1">
    <g>
      <g id="Calque_4">
        <circle class="st7" cx="400" cy="400" r="388.2"/>
      </g>
      <g id="Calque_2">
        <g>
          <path class="st7" d="M399.5,792c-53,0-104.4-10.4-152.8-30.8-46.7-19.8-88.7-48.1-124.7-84.1s-64.3-78-84.1-124.7c-20.5-48.4-30.8-99.8-30.8-152.8s10.4-104.4,30.8-152.8c19.8-46.7,48.1-88.7,84.1-124.7s78-64.3,124.7-84.1c48.4-20.5,99.8-30.8,152.8-30.8s104.4,10.4,152.8,30.8c46.7,19.8,88.7,48.1,124.7,84.1s64.3,78,84.1,124.7c20.5,48.4,30.8,99.8,30.8,152.8s-10.4,104.4-30.8,152.8c-19.8,46.7-48.1,88.7-84.1,124.7s-78,64.3-124.7,84.1c-48.4,20.5-99.8,30.8-152.8,30.8Z"/>
          <path class="st5" d="M399.5,14c212.9,0,385.5,172.6,385.5,385.5s-172.6,385.5-385.5,385.5S14,612.4,14,399.5,186.6,14,399.5,14M399.5,0c-53.9,0-106.2,10.6-155.5,31.4-47.6,20.1-90.3,48.9-127,85.6S51.5,196.4,31.4,244C10.7,293.3,0,345.6,0,399.5s10.6,106.2,31.4,155.5c20.1,47.6,48.9,90.3,85.6,127s79.4,65.5,127,85.6c49.2,20.8,101.6,31.4,155.5,31.4s106.2-10.6,155.5-31.4c47.6-20.1,90.3-48.9,127-85.6,36.7-36.7,65.5-79.4,85.6-127,20.8-49.2,31.4-101.6,31.4-155.5s-10.6-106.2-31.4-155.5c-20.1-47.6-48.9-90.3-85.6-127-36.7-36.7-79.4-65.5-127-85.6C505.7,10.7,453.4,0,399.5,0h0Z"/>
        </g>
      </g>
      <g id="Calque_3">
        <path class="st8" d="M185.4,461.4c-3.8-73.9,63-110.7,90.7-109,84.6,5.4,51,125,130.5,180.6,34.1,23.9,164.4,28.2,207.5-196"/>
      </g>
      <g id="Calque_1-2">
        <path class="st3" d="M185.4,466.4c-2.6,0-4.8-2-5-4.6l-9.3-115.9c-.2-2.8,1.8-5.2,4.6-5.4,2.8-.2,5.2,1.8,5.4,4.6l9.3,115.9c.2,2.8-1.8,5.2-4.6,5.4h-.4Z"/>
        <rect class="st2" x="168.5" y="440.5" width="33.5" height="33.5"/>
        <circle class="st0" cx="574.9" cy="562.2" r="13.5"/>
        <rect class="st2" x="597.3" y="325.8" width="33.5" height="33.5"/>
      </g>
      <g id="Calque_5">
        <circle class="st0" cx="177" cy="345.8" r="13.5"/>
        <rect class="st4" x="482.9" y="445.6" width="225.1" height="10" transform="translate(49.2 959.7) rotate(-80.1)"/>
      </g>
      <g id="Calque_2-2">
        <g>
          <path class="st6" d="M641.1,613.7l-59.5-48.3c-1.7-1.4-4.2,0-4,2.1l6.9,79.2c.2,2,2.5,3,4.1,1.6,5.8-5.1,15.8-17.5,21.7-21,6.8-4,22.9-6.8,30.1-9.4,1.8-.6,2.2-3,.7-4.2h0Z"/>
          <path class="st1" d="M588,651.4c-1,.2-2,0-3-.3-1.8-.7-3-2.4-3.2-4.3l-6.9-79.2c-.2-2,.9-4,2.7-4.9,1.8-1,4-.7,5.6.5l59.5,48.3c1.4,1.2,2.1,3,1.8,4.8s-1.6,3.3-3.3,3.9c-2.7,1-6.6,2-10.7,3-7,1.8-15,3.8-19,6.2-3.3,2-8.4,7.4-12.9,12.3-3.1,3.3-6,6.4-8.4,8.5-.7.6-1.4,1-2.3,1.1h.1ZM580.2,567.7l6.8,78.4c2.1-1.9,4.9-4.8,7.7-7.9,5-5.3,10.2-10.8,14.1-13.2,4.7-2.8,13-4.9,20.4-6.8,3.8-1,7.4-1.9,9.9-2.7l-58.9-47.8Z"/>
        </g>
      </g>
    </g>
  </g>
</svg>