<?xml version="1.0" encoding="UTF-8"?>
<svg xmlns="http://www.w3.org/2000/svg" version="1.1" viewBox="0 0 800 800">
  <defs>
    <style>
      .cls-1 {
        fill-rule: evenodd;
      }

      .cls-1, .cls-2 {
        fill: #180339;
      }

      .cls-3 {
        fill: #9d9ac5;
      }
    </style>
  </defs>
  <!-- Generator: Adobe Illustrator 28.7.1, SVG Export Plug-In . SVG Version: 1.2.0 Build 142)  -->
  <g>
    <g id="Calque_1">
      <g id="Calque_1-2" data-name="Calque_1">
        <g id="Calque_1-2">
          <circle class="cls-3" cx="400" cy="400" r="388.2"/>
          <g id="Calque_2">
            <g>
              <path class="cls-3" d="M399.5,792c-53,0-104.4-10.4-152.8-30.8-46.7-19.8-88.7-48.1-124.7-84.1-36-36-64.3-78-84.1-124.7-20.5-48.4-30.8-99.8-30.8-152.8s10.4-104.4,30.8-152.8c19.8-46.7,48.1-88.7,84.1-124.7,36-36,78-64.3,124.7-84.1,48.4-20.5,99.8-30.8,152.8-30.8s104.4,10.4,152.8,30.8c46.7,19.8,88.7,48.1,124.7,84.1,36,36,64.3,78,84.1,124.7,20.5,48.4,30.8,99.8,30.8,152.8s-10.4,104.4-30.8,152.8c-19.8,46.7-48.1,88.7-84.1,124.7-36,36-78,64.3-124.7,84.1-48.4,20.5-99.8,30.8-152.8,30.8Z"/>
              <path class="cls-2" d="M399.5,14c212.9,0,385.5,172.6,385.5,385.5s-172.6,385.5-385.5,385.5S14,612.4,14,399.5,186.6,14,399.5,14M399.5,0c-53.9,0-106.2,10.6-155.5,31.4-47.6,20.1-90.3,48.9-127,85.6-36.7,36.7-65.5,79.4-85.6,127C10.7,293.3,0,345.6,0,399.5s10.6,106.2,31.4,155.5c20.1,47.6,48.9,90.3,85.6,127,36.7,36.7,79.4,65.5,127,85.6,49.2,20.8,101.6,31.4,155.5,31.4s106.2-10.6,155.5-31.4c47.6-20.1,90.3-48.9,127-85.6,36.7-36.7,65.5-79.4,85.6-127,20.8-49.2,31.4-101.6,31.4-155.5s-10.6-106.2-31.4-155.5c-20.1-47.6-48.9-90.3-85.6-127-36.7-36.7-79.4-65.5-127-85.6C505.7,10.7,453.4,0,399.5,0h0Z"/>
            </g>
          </g>
          <g id="Page-1">
            <g id="Dribbble-Light-Preview">
              <g id="icons">
                <path id="home-_x5B__x23_1393_x5D_" class="cls-1" d="M554.4,566.7c0,13.4-11.6,19.1-25.8,19.1h-25.8c-14.2,0-25.8-5.7-25.8-19.1v-24.3c0-26.8-23.1-53.7-51.6-53.7h-51.6c-28.5,0-51.6,26.9-51.6,53.7v24.3c0,13.4-11.6,19.1-25.8,19.1h-25.8c-14.2,0-25.8-5.7-25.8-19.1v-195.9c0-3.2,1.4-6.3,3.8-8.6l132.6-124.8c10.1-9.5,26.4-9.5,36.5,0l133.1,125.3c2.4,2.3,3.8,5.4,3.8,8.6v195.4h-.2ZM606,358.1c0-6.4-2.7-12.6-7.5-17.2l-162.6-153.8c-20.1-19-52.8-19.1-73.1-.1l-162.3,152.2c-4.9,4.6-7.6,10.7-7.6,17.2v234.6c0,26.8,23.1,43.4,51.6,43.4h77.4c28.5,0,51.6-16.6,51.6-43.4v-24.3c0-13.4,11.6-24.3,25.8-24.3s25.8,10.9,25.8,24.3v24.3c0,26.8,23.1,43.4,51.6,43.4h77.4c28.5,0,51.6-16.6,51.6-43.4v-232.9h.3Z"/>
              </g>
            </g>
          </g>
        </g>
      </g>
    </g>
  </g>
</svg>