<?xml version="1.0" encoding="UTF-8"?>
<svg xmlns="http://www.w3.org/2000/svg" version="1.1" viewBox="0 0 800 800">
  <defs>
    <style>
      .cls-1 {
        stroke: #380339;
        stroke-linecap: round;
        stroke-linejoin: round;
        stroke-width: 7px;
      }

      .cls-1, .cls-2 {
        fill: #180339;
      }

      .cls-3 {
        fill: #9d9ac5;
      }
    </style>
  </defs>
  <!-- Generator: Adobe Illustrator 28.7.1, SVG Export Plug-In . SVG Version: 1.2.0 Build 142)  -->
  <g>
    <g id="Calque_1">
      <g>
        <g id="Calque_2">
          <circle class="cls-3" cx="400" cy="400" r="388.2"/>
        </g>
        <g id="Calque_2-2" data-name="Calque_2">
          <g>
            <path class="cls-3" d="M399.5,792c-53,0-104.4-10.4-152.8-30.8-46.7-19.8-88.7-48.1-124.7-84.1-36-36-64.3-78-84.1-124.7-20.5-48.4-30.8-99.8-30.8-152.8s10.4-104.4,30.8-152.8c19.8-46.7,48.1-88.7,84.1-124.7,36-36,78-64.3,124.7-84.1,48.4-20.5,99.8-30.8,152.8-30.8s104.4,10.4,152.8,30.8c46.7,19.8,88.7,48.1,124.7,84.1,36,36,64.3,78,84.1,124.7,20.5,48.4,30.8,99.8,30.8,152.8s-10.4,104.4-30.8,152.8c-19.8,46.7-48.1,88.7-84.1,124.7-36,36-78,64.3-124.7,84.1-48.4,20.5-99.8,30.8-152.8,30.8Z"/>
            <path class="cls-2" d="M399.5,14c212.9,0,385.5,172.6,385.5,385.5s-172.6,385.5-385.5,385.5S14,612.4,14,399.5,186.6,14,399.5,14M399.5,0c-53.9,0-106.2,10.6-155.5,31.4-47.6,20.1-90.3,48.9-127,85.6-36.7,36.7-65.5,79.4-85.6,127C10.7,293.3,0,345.6,0,399.5s10.6,106.2,31.4,155.5c20.1,47.6,48.9,90.3,85.6,127,36.7,36.7,79.4,65.5,127,85.6,49.2,20.8,101.6,31.4,155.5,31.4s106.2-10.6,155.5-31.4c47.6-20.1,90.3-48.9,127-85.6,36.7-36.7,65.5-79.4,85.6-127,20.8-49.2,31.4-101.6,31.4-155.5s-10.6-106.2-31.4-155.5c-20.1-47.6-48.9-90.3-85.6-127-36.7-36.7-79.4-65.5-127-85.6C505.7,10.7,453.4,0,399.5,0h0Z"/>
          </g>
        </g>
        <g id="Calque_1-2" data-name="Calque_1">
          <path class="cls-1" d="M432.5,247.7h1.4c2.5,0,3.1.8,3.4,3.1l2.8,42.3,4.5,81.2,4.2,56.7c1.4,15.8,7.6,20.9,17.5,21.2.6,0,2.3,0,1.4,2.3l-2,6.8v-.3c-.8,2.3-2,3.4-3.9,3.7-10.2-.6-22.3-1.1-34.4-1.1s-18.3,0-26.5,1.1c-1.4.3-2.5-.6-1.7-3.1l1.7-5.9c.8-2.8,2.3-3.1,4.5-3.4,9.3-.8,11-3.4,11-13.3s-.3-4.8-.3-8.2v-3.7l-.6-13.5c0-5.9-2.8-8.5-8.7-8.5h-53.3c-5.1,0-8.2,2-10.7,6.8l-7.1,15c-24.8,52.5-79.3,100.4-136.5,100.4s-98.5-32.4-98.7-82.1c2.8-39.2,39.2-71.1,83.8-71.1s44.6,10.2,44.9,27.9c-.6,12.4-9.3,19.5-16.9,19.5s-7.3-1.7-9.6-3.9c3.4-3.1,4.2-7.3,4.2-12.1.3-11.3-7.9-23.1-24.5-23.1-24.8,0-47.7,24-49.1,59-1.7,41.8,25.1,73.1,67.7,73.1s96.5-47.4,119.1-93.7l68.3-140.8c7.3-15.5-8.5-20-38.1-20s-14.4.3-22.6.6c-41.8,2-85.2,32.7-85.2,74.8s15.5,43.7,36.4,43.7,27.6-13.3,27.6-25.1-.8-6.5-2.8-9c3.4-3.1,7.6-4.8,11.3-4.8,7.6,0,15,7.6,13.5,19.2-4.2,18.6-29.1,29.1-50.5,29.1-32.2,0-63.8-20.9-63.8-58.4s59-81.5,114.5-81.5h54.7c33.9,0,44.9-.3,49.1-.6v-.3ZM409.7,270l-4.2,10.2-47.7,100.4c-3.4,7.1-1.4,9.3,5.6,9.3h42.6c5.6,0,8.2-3.4,8.2-8.5l-3.4-88.6-1.1-22.9h0Z"/>
          <path class="cls-1" d="M398.7,252.5c20.2-2.6,46.4-6.3,71.2-10.6,56.1-9.7,79.7,18.5,85.9,49.2,6.4,32.1-4.3,64-46.6,77.9-3.3.6-4,3.3-3.6,5.8,12.3,49.7,71.5,148.2,138.5,136.6,27.5-4.8,34.6-21.7,32.4-34.5-1.8-10.3-9.7-16.1-17.4-14.7h-.3c.8-8.7,6.8-16.6,16-18.2,7.5-1.3,21.5.3,24.3,16.1,4.9,28.4-29.5,61-69.5,67.9-76.2,13.2-127.7-71.2-149.4-153.3-1.3-4.3-.9-10.2,1.9-10.6,36.4-8,43.9-35.9,38.5-66.7-4-23.1-22-47.7-55.7-41.9-14.5,2.5-24,16.3-24.8,30.1"/>
        </g>
      </g>
    </g>
  </g>
</svg>