<?xml version="1.0" encoding="UTF-8"?>
<svg xmlns="http://www.w3.org/2000/svg" version="1.1" viewBox="0 0 800 800">
  <defs>
    <style>
      .cls-1, .cls-2 {
        fill-rule: evenodd;
      }

      .cls-1, .cls-3, .cls-4 {
        fill: #180339;
      }

      .cls-5 {
        isolation: isolate;
        opacity: .7;
      }

      .cls-5, .cls-2, .cls-6 {
        fill: #9d9ac5;
      }

      .cls-7 {
        stroke-linecap: round;
        stroke-width: 1.4px;
      }

      .cls-7, .cls-8 {
        fill: none;
        stroke: #180339;
        stroke-linejoin: round;
      }

      .cls-8 {
        stroke-width: 3px;
      }

      .cls-4 {
        stroke: #9d9ac5;
        stroke-miterlimit: 10;
        stroke-width: .3px;
      }
    </style>
  </defs>
  <!-- Generator: Adobe Illustrator 28.7.1, SVG Export Plug-In . SVG Version: 1.2.0 Build 142)  -->
  <g>
    <g id="Calque_1">
      <g id="Calque_1-2" data-name="Calque_1">
        <g>
          <g id="Calque_2">
            <g>
              <path class="cls-6" d="M399.5,792c-53,0-104.4-10.4-152.8-30.8-46.7-19.8-88.7-48.1-124.7-84.1-36-36-64.3-78-84.1-124.7-20.5-48.4-30.8-99.8-30.8-152.8s10.4-104.4,30.8-152.8c19.8-46.7,48.1-88.7,84.1-124.7,36-36,78-64.3,124.7-84.1,48.4-20.5,99.8-30.8,152.8-30.8s104.4,10.4,152.8,30.8c46.7,19.8,88.7,48.1,124.7,84.1,36,36,64.3,78,84.1,124.7,20.5,48.4,30.8,99.8,30.8,152.8s-10.4,104.4-30.8,152.8c-19.8,46.7-48.1,88.7-84.1,124.7-36,36-78,64.3-124.7,84.1-48.4,20.5-99.8,30.8-152.8,30.8Z"/>
              <path class="cls-3" d="M399.5,14c212.9,0,385.5,172.6,385.5,385.5s-172.6,385.5-385.5,385.5S14,612.4,14,399.5,186.6,14,399.5,14M399.5,0c-53.9,0-106.2,10.6-155.5,31.4-47.6,20.1-90.3,48.9-127,85.6-36.7,36.7-65.5,79.4-85.6,127C10.7,293.3,0,345.6,0,399.5s10.6,106.2,31.4,155.5c20.1,47.6,48.9,90.3,85.6,127,36.7,36.7,79.4,65.5,127,85.6,49.2,20.8,101.6,31.4,155.5,31.4s106.2-10.6,155.5-31.4c47.6-20.1,90.3-48.9,127-85.6,36.7-36.7,65.5-79.4,85.6-127,20.8-49.2,31.4-101.6,31.4-155.5s-10.6-106.2-31.4-155.5c-20.1-47.6-48.9-90.3-85.6-127-36.7-36.7-79.4-65.5-127-85.6C505.7,10.7,453.4,0,399.5,0h0Z"/>
            </g>
          </g>
          <g id="Calque_4">
            <rect class="cls-8" x="218.4" y="246.6" width="363.3" height="84.7" rx="10.2" ry="10.2"/>
            <rect class="cls-8" x="218.4" y="352.2" width="171.5" height="139.2" rx="9" ry="9"/>
            <rect class="cls-8" x="218.2" y="512.2" width="363.3" height="84.7" rx="10.2" ry="10.2"/>
          </g>
          <g id="Calque_6">
            <rect class="cls-8" x="410.1" y="351.6" width="171.5" height="139.2" rx="9" ry="9"/>
          </g>
          <g id="Calque_3">
            <rect class="cls-5" x="184.5" y="201.2" width="430.8" height="42.3" rx="7.9" ry="7.9"/>
            <g>
              <line class="cls-7" x1="586.7" y1="218.8" x2="596.4" y2="228.3"/>
              <line class="cls-7" x1="596.4" y1="218.8" x2="586.7" y2="228.3"/>
            </g>
            <g>
              <path class="cls-7" d="M570.9,222.3v4.7c0,.7-.5,1.3-1.2,1.3h-4.5c-.7,0-1.2-.6-1.2-1.3v-4.7c0-.7.5-1.3,1.2-1.3h4.5c.7,0,1.2.6,1.2,1.3Z"/>
              <path class="cls-7" d="M573.7,220.1v4.7c0,.7-.5,1.3-1.2,1.3h-1.5v-3.6c0-.7-.5-1.3-1.2-1.3h-2.9v-1c0-.7.5-1.3,1.2-1.3h4.5c.7,0,1.2.6,1.2,1.3Z"/>
            </g>
            <line class="cls-7" x1="542.3" y1="224.6" x2="551.8" y2="224.6"/>
            <rect class="cls-8" x="223.9" y="213.1" width="42.5" height="15.8" rx="1.3" ry="1.3"/>
          </g>
          <g id="Calque_5">
            <g id="Calque_2-2">
              <g>
                <path class="cls-2" d="M551.2,435.8l-16.9-13.7c-.5-.4-1.2,0-1.1.6l1.9,22.5c0,.6.7.8,1.1.4,1.6-1.4,4.5-5,6.2-6,1.9-1.1,6.5-1.9,8.5-2.6.5-.2.6-.8.2-1.2h.1Z"/>
                <path class="cls-4" d="M536.1,446.5h-.8c-.5-.2-.8-.7-.9-1.2l-1.9-22.5c0-.6.3-1.1.8-1.4s1.1-.2,1.6.1l16.9,13.7c.4.3.6.8.5,1.3s-.4.9-.9,1.1c-.8.3-1.8.6-3,.8-2,.5-4.3,1.1-5.4,1.7-.9.6-2.4,2.1-3.6,3.4-.9.9-1.7,1.8-2.4,2.4-.2.2-.4.3-.6.3h0l-.2.2h0ZM533.8,422.7l1.9,22.2c.6-.5,1.4-1.3,2.2-2.2,1.4-1.5,2.9-3,4-3.7,1.3-.8,3.6-1.4,5.8-1.9,1.1-.3,2.1-.5,2.8-.8l-16.7-13.6h0Z"/>
              </g>
            </g>
          </g>
          <g id="Calque_1-2">
            <g id="Page-1">
              <g id="Icon-Set">
                <path class="cls-1" d="M583.4,177.3H216.6c-35.3,0-63.8,24.9-63.8,55.6v250.4c0,30.7,28.6,55.6,63.8,55.6h127.6v55.6h-31.9c-8.8,0-15.9,6.3-15.9,13.9s7.1,13.9,15.9,13.9h191.4c8.8,0,15.9-6.2,15.9-13.9s-7.1-13.9-15.9-13.9h-31.9v-55.6h111.6c35.3,0,63.8-24.9,63.8-55.6v-250.4c0-30.7-28.6-55.6-63.8-55.6h0ZM439.8,594.8h-63.8v-55.6h63.8v55.6ZM615.3,455.6v27.9c0,15.4-14.3,27.9-31.9,27.9H216.6c-17.6,0-31.9-12.5-31.9-27.9v-31.9c-.3-8.1-.4-15.7,0-23.7v-194.8c0-15.4,14.3-27.9,31.9-27.9h366.8c17.6,0,31.9,12.5,31.9,27.9v194.8"/>
              </g>
            </g>
          </g>
        </g>
      </g>
    </g>
  </g>
</svg>