<?xml version="1.0" encoding="UTF-8"?>
<svg id="Calque_1" xmlns="http://www.w3.org/2000/svg" version="1.1" xmlns:xlink="http://www.w3.org/1999/xlink" viewBox="0 0 1060 1060">
  <!-- Generator: Adobe Illustrator 29.1.0, SVG Export Plug-In . SVG Version: 2.1.0 Build 142)  -->
  <defs>
    <style>
      .st0 {
        fill: #1c1636;
      }

      .st1 {
        fill: #fff;
        font-family: Rafaella-Bold, Rafaella;
        font-size: 75px;
        font-weight: 700;
      }
    </style>
    <path id="path" d="M98.1,530c0-238.6,193.4-432,432-432s432,193.4,432,432"/>
  </defs>
  <path class="st0" d="M530,144.5c212.9,0,385.5,172.6,385.5,385.5s-172.6,385.5-385.5,385.5-385.5-172.6-385.5-385.5,172.6-385.5,385.5-385.5M530,130.6c-53.9,0-106.2,10.6-155.5,31.4-47.6,20.1-90.3,48.9-127,85.6-36.7,36.7-65.5,79.4-85.6,127-20.7,49.2-31.3,101.5-31.3,155.4s10.6,106.2,31.4,155.5c20.1,47.6,48.9,90.3,85.6,127,36.7,36.7,79.4,65.5,127,85.6,49.2,20.8,101.6,31.4,155.5,31.4s106.2-10.6,155.5-31.4c47.6-20.1,90.3-48.9,127-85.6,36.7-36.7,65.5-79.4,85.6-127,20.8-49.2,31.4-101.6,31.4-155.5s-10.6-106.2-31.4-155.5c-20.1-47.6-48.9-90.3-85.6-127-36.7-36.7-79.4-65.5-127-85.6-49.4-20.7-101.7-31.3-155.6-31.3h0Z"/>
  <text>
    <textPath xlink:href="#path"><tspan class="st1"><tspan x="0" y="0">Web design</tspan></tspan>
    </textPath></text>
</svg>